<?xml version="1.0" standalone="no"?>
<!DOCTYPE svg PUBLIC "-//W3C//DTD SVG 20010904//EN"
 "http://www.w3.org/TR/2001/REC-SVG-20010904/DTD/svg10.dtd">
<svg version="1.0" xmlns="http://www.w3.org/2000/svg"
 width="794.000000pt" height="635.000000pt" viewBox="0 0 794.000000 635.000000"
 preserveAspectRatio="xMidYMid meet">
<metadata>
Created by potrace 1.15, written by Peter Selinger 2001-2017
</metadata>
<g transform="translate(0.000000,635.000000) scale(0.100000,-0.100000)"
fill="#000000" stroke="none">
<path d="M2284 5295 c-377 -400 -546 -1080 -404 -1625 15 -60 17 -78 7 -91 -7
-9 -37 -49 -68 -90 -124 -163 -241 -390 -313 -607 -151 -458 -134 -858 50
-1162 26 -44 51 -80 54 -80 3 0 23 53 44 118 64 195 105 262 187 306 28 16 52
26 54 24 2 -1 -1 -39 -6 -83 -8 -77 -1 -345 9 -345 12 0 84 61 175 148 109
104 161 133 279 158 257 55 564 -90 1128 -533 230 -181 359 -270 449 -312 65
-30 88 -35 174 -39 217 -10 275 21 854 464 290 222 458 322 644 385 119 40
291 52 380 26 91 -27 177 -85 281 -190 60 -60 104 -97 117 -97 24 0 23 -15 21
247 -1 95 3 173 7 173 13 0 54 -29 91 -64 49 -45 85 -115 132 -256 24 -69 44
-126 45 -128 5 -6 63 83 95 146 150 295 148 701 -6 1143 -69 201 -195 439
-315 599 l-59 77 25 109 c106 464 11 981 -253 1375 -76 113 -222 269 -252 269
-30 0 -176 -49 -257 -85 -257 -118 -493 -358 -659 -668 -40 -76 -50 -88 -68
-84 -11 2 -62 14 -112 26 -190 43 -330 55 -659 55 -364 1 -493 -12 -806 -80
-23 -5 -28 -1 -43 38 -28 70 -122 231 -185 315 -119 161 -275 290 -455 378
-100 49 -263 105 -305 105 -8 0 -43 -29 -77 -65z m254 -265 c280 -135 466
-361 587 -713 30 -84 41 -107 54 -103 9 2 34 7 56 11 22 4 102 27 178 51 175
56 245 59 323 15 57 -33 141 -120 181 -188 49 -84 55 -116 63 -348 6 -171 12
-229 25 -263 47 -116 194 -135 262 -34 32 48 42 113 52 337 10 219 19 260 80
348 45 66 122 140 167 162 66 32 158 24 297 -24 135 -47 239 -74 248 -63 4 4
24 50 44 102 103 263 242 466 410 599 70 56 239 151 268 151 29 0 141 -159
212 -299 54 -108 112 -291 135 -425 31 -180 24 -199 -19 -54 -47 158 -96 260
-154 316 l-44 44 -44 -23 c-203 -102 -355 -311 -442 -606 l-16 -53 88 -45
c206 -106 442 -283 586 -438 279 -301 438 -669 490 -1134 7 -60 6 -63 -15 -63
-12 0 -73 23 -136 51 -228 101 -322 73 -340 -99 l-7 -59 -81 20 c-44 11 -87
22 -94 24 -8 2 7 19 35 41 63 51 117 111 145 164 19 36 23 58 23 138 0 80 -4
103 -24 144 -46 93 -177 215 -405 376 -197 139 -387 233 -582 287 -87 24 -116
27 -244 27 -124 0 -154 -4 -204 -22 -114 -42 -219 -130 -280 -235 -27 -45 -28
-53 -22 -120 3 -40 2 -117 -4 -172 -32 -307 -23 -388 47 -466 41 -45 83 -68
223 -124 94 -38 162 -74 175 -95 16 -26 -105 -182 -211 -271 -78 -66 -235
-182 -368 -272 -114 -78 -171 -62 -371 105 -61 50 -158 129 -216 175 -108 83
-174 151 -206 210 -16 31 -16 33 2 54 11 11 97 59 192 105 137 67 178 92 207
125 l35 42 -5 91 c-4 56 0 142 10 224 35 289 19 368 -93 482 -74 75 -186 137
-301 167 -266 69 -616 -57 -1038 -374 -169 -128 -274 -234 -312 -315 -73 -156
-20 -328 134 -435 31 -21 55 -41 56 -44 0 -9 -49 -27 -95 -34 -22 -3 -52 -8
-66 -11 -25 -5 -26 -3 -32 47 -4 32 -18 71 -35 98 -28 46 -28 46 -89 49 -77 4
-163 -18 -276 -70 -48 -23 -90 -38 -94 -35 -3 4 2 66 11 138 91 688 434 1172
1052 1486 70 36 94 53 94 67 0 45 -45 179 -95 281 -80 166 -186 281 -333 367
l-54 30 -49 -48 c-27 -27 -67 -82 -90 -126 -40 -77 -89 -243 -89 -299 0 -16
-5 -29 -10 -29 -26 0 12 267 57 410 49 155 246 510 284 510 8 0 52 -18 97 -40z
m2385 -2064 c51 -19 76 -42 99 -93 15 -35 17 -50 9 -81 -20 -73 -113 -131
-209 -132 -98 0 -142 44 -142 142 0 91 45 147 133 168 47 12 68 11 110 -4z
m-1367 -38 c64 -70 68 -172 10 -235 -79 -87 -226 -48 -272 72 -44 117 31 209
165 202 58 -3 66 -6 97 -39z"/>
<path d="M3940 2216 c-96 -27 -133 -80 -111 -162 35 -129 215 -294 321 -294
25 0 50 9 76 29 56 41 216 206 236 244 18 33 23 83 12 112 -9 23 -76 54 -153
71 -82 17 -318 17 -381 0z"/>
</g>
</svg>
