<?xml version="1.0" encoding="utf-8"?>
<!-- Generator: Adobe Illustrator 23.1.0, SVG Export Plug-In . SVG Version: 6.00 Build 0)  -->
<svg version="1.1" xmlns="http://www.w3.org/2000/svg" xmlns:xlink="http://www.w3.org/1999/xlink" x="0px" y="0px"
	 viewBox="0 0 333.32 333.32" style="enable-background:new 0 0 333.32 333.32;" xml:space="preserve">
<style type="text/css">
	.st0{fill:none;}
	.st1{fill:#262020;}
	.st2{display:none;}
	.st3{display:inline;}
</style>
<g id="Calque_6_-_copie">
	<g id="Calque_2_-_copie">
	</g>
	<g id="Calque_3_-_copie">
	</g>
	<g id="Calque_4_-_copie">
	</g>
	<g id="Calque_5_-_copie">
		<g>
			<path class="st0" d="M85.47,111.56c0.03-0.02,0.06-0.03,0.08-0.05C85.53,111.52,85.5,111.54,85.47,111.56z"/>
			<path class="st0" d="M92.49,107.46c0.21-0.12,0.41-0.23,0.62-0.35C92.9,107.23,92.69,107.34,92.49,107.46z"/>
			<path class="st0" d="M200.1,184.21c-3.14,0.6-5.67,3.13-6.27,6.27c-1.07,5.62,3.77,10.46,9.4,9.4c3.14-0.6,5.67-3.13,6.27-6.27
				C210.56,187.99,205.72,183.15,200.1,184.21z"/>
			<path class="st0" d="M131.95,184.21c-3.14,0.6-5.67,3.13-6.27,6.27c-1.07,5.62,3.77,10.46,9.4,9.4c3.14-0.6,5.67-3.13,6.27-6.27
				C142.41,187.99,137.57,183.15,131.95,184.21z"/>
			<path class="st1" d="M285.02,139.14c-6.11-5.6-12.17-10.66-18.17-15.23c0.06,0.04,0.09,0.07,0.07,0.05
				c1.18-39.26-6.47-49.49-6.77-49.95c-29.89,9.36-38.39,23.75-38.39,23.75c0.03,0.01,0.06,0.03,0.09,0.04
				c-41.33-16.67-78.36-11.98-107.79-0.52c0,0,0-0.01-0.01-0.01c0.03-0.01,0.06-0.02,0.09-0.03c0,0-8.92-14.97-38.8-24.33
				c-0.3,0.45-7.82,10.89-6.64,50.14l-20.56,18.09c-2.22,2.27-2.2,5.9,0.05,8.13c5.28,5.21,14.59,14.39,20.24,19.81
				c2.38,2.28,6.22,2.02,8.24-0.59c28.3-36.34,114.93-70.82,181.22,0.32c2.26,2.42,6.09,2.42,8.3-0.05
				c5.31-5.94,14.3-16.21,19.25-21.87C287.44,144.62,287.24,141.18,285.02,139.14z"/>
			<path class="st1" d="M240.31,195.82c-74.98-83.73-144.79-1.24-144.89-1.12l-0.01-0.01c-11.72,13.58-44.93,10.58-44.93,10.58
				c50.74,59.37,76.13,20.74,76.18,20.67l0.01,0.01c45.19-56.79,83.87,2.42,84.44,3.15l0,0c0,0,24.03,37.08,74.81-22.34
				C285.91,206.76,252.08,209.35,240.31,195.82z M141.34,193.61c-0.6,3.14-3.13,5.68-6.27,6.27c-5.62,1.07-10.46-3.77-9.4-9.4
				c0.6-3.14,3.13-5.67,6.27-6.27C137.57,183.15,142.41,187.99,141.34,193.61z M209.49,193.61c-0.6,3.14-3.13,5.68-6.27,6.27
				c-5.62,1.07-10.46-3.77-9.4-9.4c0.6-3.14,3.13-5.67,6.27-6.27C205.72,183.15,210.56,187.99,209.49,193.61z"/>
			
				<ellipse transform="matrix(0.7071 -0.7071 0.7071 0.7071 -124.4694 190.608)" class="st1" cx="167.85" cy="245.55" rx="14.86" ry="14.86"/>
		</g>
	</g>
</g>
<g id="Calque_6" class="st2">
	<g id="Calque_2" class="st3">
		<g>
			<path class="st1" d="M302.3,149.09c0,0,110.94-129.74,244.75-2.49c0.23,0.23-26.94,30.57-26.94,30.57
				c-69.74-80.6-164.45-38.69-188.83,0C331.06,177.62,302.3,149.09,302.3,149.09z"/>
		</g>
		<path class="st1" d="M357.08,211.66"/>
		<path class="st1" d="M357.08,211.66"/>
		<path class="st1" d="M364.78,239.91"/>
	</g>
	<g id="Calque_3" class="st3">
		<g>
			<path class="st1" d="M308.54,209.03c0,0,33.22,3.01,44.93-10.58l31.25,31.25C384.72,229.7,359.32,268.46,308.54,209.03z"/>
		</g>
		<g>
			<path class="st1" d="M543.98,210.52c0,0-33.83,2.59-45.6-10.94l-29.21,33.28C469.17,232.87,493.2,269.95,543.98,210.52z"/>
		</g>
		<g>
			<circle class="st1" cx="425.92" cy="249.31" r="14.86"/>
		</g>
	</g>
	<g id="Calque_4" class="st3">
		<g>
			<g>
				<path class="st1" d="M353.48,198.46l31.25,31.25c45.4-57.06,84.24,2.98,84.45,3.17c0,0,29.17-32.9,29.2-33.3
					C423.34,115.79,353.48,198.46,353.48,198.46z M393.14,203.64c-5.62,1.07-10.46-3.77-9.4-9.4c0.6-3.14,3.13-5.67,6.27-6.27
					c5.62-1.07,10.46,3.77,9.4,9.39C398.82,200.51,396.28,203.04,393.14,203.64z M461.29,203.64c-5.62,1.07-10.46-3.77-9.4-9.4
					c0.6-3.14,3.13-5.67,6.27-6.27c5.62-1.07,10.46,3.77,9.4,9.39C466.97,200.51,464.43,203.04,461.29,203.64z"/>
			</g>
			<g>
				<circle class="st0" cx="391.57" cy="195.79" r="7.98"/>
			</g>
			<g>
				<circle class="st0" cx="459.72" cy="195.79" r="7.98"/>
			</g>
		</g>
	</g>
	<g id="Calque_5" class="st3">
		<g>
			<path class="st1" d="M479.84,101.52c0,0,8.5-14.39,38.39-23.75c0.3,0.45,7.95,10.69,6.77,49.95
				C525.43,128.05,503.79,111.99,479.84,101.52z"/>
		</g>
		<g>
			<path class="st1" d="M372.22,100.99c0,0-8.92-14.97-38.8-24.33c-0.3,0.45-7.82,10.9-6.64,50.16
				C326.44,126.86,348.07,110.07,372.22,100.99z"/>
		</g>
	</g>
</g>
</svg>
